<svg width="10" height="17" viewBox="0 0 10 17" fill="none" xmlns="http://www.w3.org/2000/svg">
<path d="M9.27 11.634C9.27 12.618 8.946 13.428 8.298 14.064C7.65 14.7 6.81 15.078 5.778 15.198V16.8H4.644V15.216C3.66 15.144 2.82 14.874 2.124 14.406C1.44 13.938 0.942 13.308 0.63 12.516L2.07 11.688C2.478 12.804 3.336 13.434 4.644 13.578V9.222C4.104 9.03 3.666 8.856 3.33 8.7C3.006 8.532 2.664 8.31 2.304 8.034C1.944 7.758 1.674 7.422 1.494 7.026C1.326 6.618 1.242 6.15 1.242 5.622C1.242 4.65 1.566 3.858 2.214 3.246C2.862 2.634 3.672 2.28 4.644 2.184V0.6H5.778V2.202C6.498 2.298 7.14 2.55 7.704 2.958C8.268 3.366 8.706 3.918 9.018 4.614L7.614 5.406C7.266 4.53 6.654 4.008 5.778 3.84V7.98C6.33 8.184 6.768 8.364 7.092 8.52C7.416 8.676 7.77 8.898 8.154 9.186C8.538 9.462 8.82 9.804 9 10.212C9.18 10.62 9.27 11.094 9.27 11.634ZM2.898 5.622C2.898 6.078 3.036 6.45 3.312 6.738C3.588 7.026 4.032 7.296 4.644 7.548V3.822C4.116 3.894 3.69 4.092 3.366 4.416C3.054 4.728 2.898 5.13 2.898 5.622ZM5.778 13.542C6.354 13.458 6.798 13.248 7.11 12.912C7.434 12.564 7.596 12.144 7.596 11.652C7.596 11.16 7.446 10.77 7.146 10.482C6.858 10.182 6.402 9.9 5.778 9.636V13.542Z" fill="black"/>
</svg>
