<svg width="12" height="12" viewBox="0 0 12 12" fill="none" xmlns="http://www.w3.org/2000/svg">
<path d="M10.1242 1.722C9.16711 0.758622 7.90386 0.159371 6.55226 0.0275548C5.20067 -0.104262 3.84544 0.239617 2.72021 0.999907C1.59498 1.7602 0.770273 2.88925 0.388265 4.19242C0.00625633 5.49559 0.0908879 6.89121 0.627569 8.13866C0.683505 8.25461 0.701858 8.38512 0.680069 8.512L0.166736 10.9795C0.146958 11.0741 0.150997 11.1721 0.178488 11.2648C0.20598 11.3574 0.256063 11.4418 0.324236 11.5103C0.380121 11.5658 0.446662 11.6094 0.519847 11.6385C0.593032 11.6675 0.671346 11.6815 0.750069 11.6795H0.866736L3.3634 11.1778C3.49029 11.1626 3.61897 11.1807 3.73674 11.2303C4.98419 11.767 6.37981 11.8516 7.68298 11.4696C8.98615 11.0876 10.1152 10.2629 10.8755 9.13769C11.6358 8.01246 11.9797 6.65723 11.8478 5.30563C11.716 3.95404 11.1168 2.69079 10.1534 1.73366L10.1242 1.722ZM3.66674 6.4295C3.55136 6.4295 3.43858 6.39529 3.34265 6.33119C3.24672 6.26709 3.17196 6.17599 3.12781 6.0694C3.08365 5.96281 3.0721 5.84552 3.09461 5.73236C3.11712 5.61921 3.17268 5.51527 3.25426 5.43368C3.33584 5.3521 3.43978 5.29655 3.55293 5.27404C3.66609 5.25153 3.78338 5.26308 3.88997 5.30723C3.99656 5.35139 4.08766 5.42615 4.15176 5.52208C4.21586 5.61801 4.25007 5.73079 4.25007 5.84616C4.25007 6.00087 4.18861 6.14925 4.07921 6.25864C3.96982 6.36804 3.82145 6.4295 3.66674 6.4295ZM6.00007 6.4295C5.8847 6.4295 5.77191 6.39529 5.67599 6.33119C5.58006 6.26709 5.50529 6.17599 5.46114 6.0694C5.41699 5.96281 5.40544 5.84552 5.42794 5.73236C5.45045 5.61921 5.50601 5.51527 5.58759 5.43368C5.66917 5.3521 5.77311 5.29655 5.88627 5.27404C5.99942 5.25153 6.11671 5.26308 6.2233 5.30723C6.32989 5.35139 6.421 5.42615 6.48509 5.52208C6.54919 5.61801 6.5834 5.73079 6.5834 5.84616C6.5834 6.00087 6.52194 6.14925 6.41255 6.25864C6.30315 6.36804 6.15478 6.4295 6.00007 6.4295ZM8.3334 6.4295C8.21803 6.4295 8.10525 6.39529 8.00932 6.33119C7.91339 6.26709 7.83862 6.17599 7.79447 6.0694C7.75032 5.96281 7.73877 5.84552 7.76128 5.73236C7.78379 5.61921 7.83934 5.51527 7.92092 5.43368C8.0025 5.3521 8.10644 5.29655 8.2196 5.27404C8.33276 5.25153 8.45004 5.26308 8.55663 5.30723C8.66322 5.35139 8.75433 5.42615 8.81843 5.52208C8.88252 5.61801 8.91674 5.73079 8.91674 5.84616C8.91674 6.00087 8.85528 6.14925 8.74588 6.25864C8.63649 6.36804 8.48811 6.4295 8.3334 6.4295Z" fill="#F25822"/>
</svg>
