<svg width="11" height="11" viewBox="0 0 11 11" fill="none" xmlns="http://www.w3.org/2000/svg">
<path d="M6.94375 3.84999C6.59246 3.84879 6.24438 3.91686 5.91943 4.05032C5.59448 4.18378 5.29903 4.38 5.04999 4.62776C4.80095 4.87552 4.60321 5.16996 4.46809 5.49422C4.33296 5.81848 4.2631 6.1662 4.2625 6.51749V9.21249C4.2625 9.32189 4.30596 9.42682 4.38332 9.50417C4.46067 9.58153 4.56559 9.62499 4.675 9.62499H5.6375C5.7469 9.62499 5.85182 9.58153 5.92918 9.50417C6.00654 9.42682 6.05 9.32189 6.05 9.21249V6.51749C6.04991 6.39255 6.07615 6.26899 6.12701 6.15487C6.17787 6.04075 6.25222 5.93863 6.34519 5.85517C6.43817 5.77171 6.54769 5.70878 6.66662 5.67048C6.78554 5.63219 6.91121 5.61938 7.03541 5.63291C7.25817 5.66097 7.46288 5.7698 7.61072 5.93876C7.75856 6.10772 7.83926 6.32507 7.8375 6.54958V9.21249C7.8375 9.32189 7.88096 9.42682 7.95832 9.50417C8.03567 9.58153 8.1406 9.62499 8.25 9.62499H9.2125C9.3219 9.62499 9.42682 9.58153 9.50418 9.50417C9.58154 9.42682 9.625 9.32189 9.625 9.21249V6.51749C9.6244 6.1662 9.55453 5.81848 9.41941 5.49422C9.28428 5.16996 9.08654 4.87552 8.8375 4.62776C8.58846 4.38 8.29302 4.18378 7.96807 4.05032C7.64311 3.91686 7.29503 3.84879 6.94375 3.84999Z" fill="#AAAAAA"/>
<path d="M3.025 4.26245H1.7875C1.55968 4.26245 1.375 4.44713 1.375 4.67495V9.21245C1.375 9.44027 1.55968 9.62495 1.7875 9.62495H3.025C3.25282 9.62495 3.4375 9.44027 3.4375 9.21245V4.67495C3.4375 4.44713 3.25282 4.26245 3.025 4.26245Z" fill="#AAAAAA"/>
<path d="M2.40625 3.4375C2.97579 3.4375 3.4375 2.97579 3.4375 2.40625C3.4375 1.83671 2.97579 1.375 2.40625 1.375C1.83671 1.375 1.375 1.83671 1.375 2.40625C1.375 2.97579 1.83671 3.4375 2.40625 3.4375Z" fill="#AAAAAA"/>
</svg>
